<svg version="1.1" preserveAspectRatio="none" xmlns="http://www.w3.org/2000/svg" width="500" height="500" viewBox="0 0 500 500"><rect width="100%" height="100%" fill="#070707" fill-opacity="1"/><svg viewBox="195.138 559.9277 367.5222 375.6131" width="325.8270081634533" height="333" x="87.0865px" y="83.5px" xmlns="http://www.w3.org/2000/svg" xmlns:xlink="http://www.w3.org/1999/xlink" preserveAspectRatio="none"><defs></defs><style>.companyName {fill:#F7DC5F;fill-opacity:1;}.icon1 {fill:#F7DC5F;fill-opacity:1;}.icon2 {fill:#8C7848;fill-opacity:1;}.icon3 {fill:#534538;fill-opacity:1;}.icon3-str {stroke:#534538;stroke-opacity:1;}.text {fill:#F7DC5F;fill-opacity:1;}</style><g opacity="1" transform="rotate(0 316.7704 911.5408)">
<svg width="124.2574" height="24" x="316.7704" y="911.5408" version="1.1" preserveAspectRatio="none" viewBox="3.24 -27.28 183.88 35.519999999999996">
  <g transform="matrix(1 0 0 1 0 0)" class="text"><path id="id-6izo4zJp8" d="M22.72-23.60L6.24-23.60L6.24-14.72L20.96-14.72L20.96-11.80L6.24-11.80L6.24-2.88L22.72-2.88L22.72 0L3.24 0L3.24-26.48L22.72-26.48L22.72-23.60Z M30.72-20L33.72-20L33.72-16.88Q34.80-18.32 36.36-19.32Q37.92-20.32 39.92-20.32Q41.92-20.32 43.36-19.76Q44.80-19.20 45.88-18.08L45.88-18.08Q48.36-15.64 48.36-11.64L48.36-11.64L48.36 0L45.36 0L45.36-11.56Q45.36-14.32 43.80-15.96Q42.24-17.60 39.76-17.60L39.76-17.60Q37.24-17.60 35.48-15.92L35.48-15.92Q33.72-14.20 33.72-11.52L33.72-11.52L33.72 0L30.72 0L30.72-20Z M72.96-16.80L72.96-16.80L72.96-20L75.96-20L75.96-0.60Q75.96 3.72 73.50 5.98Q71.04 8.24 66.88 8.24Q62.72 8.24 60.38 6.64Q58.04 5.04 57.20 2.40L57.20 2.40L60.52 2.40Q61.80 5.52 66.36 5.52L66.36 5.52Q69.84 5.52 71.40 3.92Q72.96 2.32 72.96-0.80L72.96-0.80L72.96-3.56Q70.52 0 65.80 0L65.80 0Q61.48 0 58.76-2.96L58.76-2.96Q56.12-5.84 56.12-10.16L56.12-10.16Q56.12-14.48 58.76-17.36L58.76-17.36Q61.48-20.32 66.02-20.32Q70.56-20.32 72.96-16.80ZM66.20-2.72L66.20-2.72Q67.84-2.72 69.12-3.30Q70.40-3.88 71.32-4.88L71.32-4.88Q73.12-6.96 73.12-10.16L73.12-10.16Q73.12-13.36 71.32-15.44L71.32-15.44Q69.36-17.60 66.20-17.60L66.20-17.60Q62.96-17.60 61.00-15.44L61.00-15.44Q59.12-13.32 59.12-10.16L59.12-10.16Q59.12-7 61.00-4.88L61.00-4.88Q62.96-2.72 66.20-2.72Z M85.16 0L85.16-20L88.16-20L88.16 0L85.16 0ZM85.04-27.28L88.28-27.28L88.28-23.36L85.04-23.36L85.04-27.28Z M97.36-20L100.36-20L100.36-16.88Q101.44-18.32 103-19.32Q104.56-20.32 106.56-20.32Q108.56-20.32 110-19.76Q111.44-19.20 112.52-18.08L112.52-18.08Q115-15.64 115-11.64L115-11.64L115 0L112 0L112-11.56Q112-14.32 110.44-15.96Q108.88-17.60 106.40-17.60L106.40-17.60Q103.88-17.60 102.12-15.92L102.12-15.92Q100.36-14.20 100.36-11.52L100.36-11.52L100.36 0L97.36 0L97.36-20Z M132.92-2.40L132.92-2.40Q136.96-2.40 138.72-5.76L138.72-5.76L142-5.76Q140.96-3.04 138.70-1.36Q136.44 0.32 132.88 0.32L132.88 0.32Q128.36 0.32 125.52-2.68L125.52-2.68Q122.76-5.60 122.76-10L122.76-10Q122.76-14.44 125.40-17.32L125.40-17.32Q128.20-20.32 132.68-20.32L132.68-20.32Q137.16-20.32 139.96-17.32L139.96-17.32Q142.60-14.44 142.60-10L142.60-10L142.60-8.80L125.84-8.80Q126.16-6.04 128.04-4.24L128.04-4.24Q129.96-2.40 132.92-2.40ZM132.68-17.60L132.68-17.60Q129.92-17.60 128.04-15.88L128.04-15.88Q126.28-14.24 125.88-11.60L125.88-11.60L139.48-11.60Q139.08-14.24 137.32-15.88L137.32-15.88Q135.44-17.60 132.68-17.60Z M159.20-2.40L159.20-2.40Q163.24-2.40 165-5.76L165-5.76L168.28-5.76Q167.24-3.04 164.98-1.36Q162.72 0.32 159.16 0.32L159.16 0.32Q154.64 0.32 151.80-2.68L151.80-2.68Q149.04-5.60 149.04-10L149.04-10Q149.04-14.44 151.68-17.32L151.68-17.32Q154.48-20.32 158.96-20.32L158.96-20.32Q163.44-20.32 166.24-17.32L166.24-17.32Q168.88-14.44 168.88-10L168.88-10L168.88-8.80L152.12-8.80Q152.44-6.04 154.32-4.24L154.32-4.24Q156.24-2.40 159.20-2.40ZM158.96-17.60L158.96-17.60Q156.20-17.60 154.32-15.88L154.32-15.88Q152.56-14.24 152.16-11.60L152.16-11.60L165.76-11.60Q165.36-14.24 163.60-15.88L163.60-15.88Q161.72-17.60 158.96-17.60Z M186.92-20.32L187.12-20.32L187.12-17.32L186.76-17.32Q183.52-17.32 181.48-14.72L181.48-14.72Q179.56-12.24 179.56-8.80L179.56-8.80L179.56 0L176.56 0L176.56-20L179.56-20L179.56-15.08Q180.52-18.20 183.72-19.68L183.72-19.68Q185.04-20.32 186.92-20.32L186.92-20.32Z"/></g>
</svg>
</g><g opacity="1" transform="rotate(0 195.138 789.5408)">
<svg width="367.5222" height="100" x="195.138" y="789.5408" version="1.1" preserveAspectRatio="none" viewBox="-6.72 -33.2 160.23999999999998 43.60000000000001">
  <g transform="matrix(1 0 0 1 0 0)" class="companyName"><path id="id-D6z1nYkh7" d="M5.20 0.92L5.20-24.64Q5.20-26.04 5.06-26.90Q4.92-27.76 4.52-28.26Q4.12-28.76 3.38-28.94Q2.64-29.12 1.40-29.20L1.40-29.20L1.40-30.80L14.88-30.80L14.88-29.20Q13.64-29.16 12.88-28.96Q12.12-28.76 11.72-28.24Q11.32-27.72 11.20-26.80Q11.08-25.88 11.08-24.36L11.08-24.36L11.08 0.08Q11.08 5.12 8.52 7.76Q5.96 10.40 0.88 10.40L0.88 10.40Q-2.76 10.40-4.74 9.16Q-6.72 7.92-6.72 6L-6.72 6Q-6.72 4.84-5.98 4.22Q-5.24 3.60-4.16 3.60L-4.16 3.60Q-3.24 3.60-2.70 4.08Q-2.16 4.56-1.36 5.88L-1.36 5.88Q-0.56 7.20 0.08 7.64Q0.72 8.08 1.64 8.08L1.64 8.08Q3.36 8.08 4.28 6.20Q5.20 4.32 5.20 0.92L5.20 0.92Z M38.04-5.12L39.16-3.72Q35.52 0.40 30.08 0.40L30.08 0.40Q27.60 0.40 25.58-0.38Q23.56-1.16 22.12-2.58Q20.68-4 19.88-5.96Q19.08-7.92 19.08-10.32L19.08-10.32Q19.08-12.80 19.92-14.86Q20.76-16.92 22.30-18.42Q23.84-19.92 25.94-20.76Q28.04-21.60 30.56-21.60L30.56-21.60Q34.80-21.60 37.16-19.32Q39.52-17.04 39.52-12.92L39.52-12.92Q39.52-12.28 39.32-12.14Q39.12-12 38.20-12L38.20-12L25.32-12Q25.16-11.64 25.16-10.68L25.16-10.68Q25.16-6.76 26.86-4.48Q28.56-2.20 31.48-2.20L31.48-2.20Q33.16-2.20 34.82-2.96Q36.48-3.72 38.04-5.12L38.04-5.12ZM25.60-14.24L31.40-14.24Q33-14.24 33.46-14.42Q33.92-14.60 33.92-15.28L33.92-15.28Q33.92-17.04 32.92-18.16Q31.92-19.28 30.40-19.28L30.40-19.28Q28.68-19.28 27.34-17.86Q26-16.44 25.60-14.24L25.60-14.24Z M64.24-6.80L63.76 0L44.00 0L44.00-0.92L56.52-19.08L52.84-19.08Q51.12-19.08 50.04-18.94Q48.96-18.80 48.30-18.34Q47.64-17.88 47.30-17.08Q46.96-16.28 46.72-14.96L46.72-14.96L45.16-14.96L45.64-21.20L63.68-21.20L63.68-20.28L51.36-2.16L54.88-2.16Q56.96-2.16 58.32-2.34Q59.68-2.52 60.52-3.02Q61.36-3.52 61.84-4.42Q62.32-5.32 62.68-6.80L62.68-6.80L64.24-6.80Z M78-8.12L78-6.20Q78-4.64 78.14-3.74Q78.28-2.84 78.72-2.36Q79.16-1.88 80-1.74Q80.84-1.60 82.24-1.60L82.24-1.60L82.24 0L68.88 0L68.88-1.60Q70.08-1.68 70.80-1.84Q71.52-2 71.88-2.48Q72.24-2.96 72.34-3.86Q72.44-4.76 72.44-6.28L72.44-6.28L72.44-11.16Q72.44-13.64 72.32-15.12Q72.20-16.60 71.80-17.40Q71.40-18.20 70.66-18.46Q69.92-18.72 68.72-18.72L68.72-18.72L68.72-20.12L76.72-21.60L77.36-17L77.52-17Q78.60-19.12 80.36-20.36Q82.12-21.60 84.08-21.60L84.08-21.60Q85.60-21.60 86.56-20.84Q87.52-20.08 87.52-18.92L87.52-18.92Q87.52-17.64 86.78-16.76Q86.04-15.88 84.76-15.88L84.76-15.88Q84.16-15.88 83.68-16.12Q83.20-16.36 82.82-16.66Q82.44-16.96 82.06-17.22Q81.68-17.48 81.28-17.48L81.28-17.48Q80.52-17.48 79.84-16.48Q79.16-15.48 78.72-13.80L78.72-13.80Q78.40-12.60 78.20-11.10Q78-9.60 78-8.12L78-8.12Z M109.84-5.12L110.96-3.72Q107.32 0.40 101.88 0.40L101.88 0.40Q99.40 0.40 97.38-0.38Q95.36-1.16 93.92-2.58Q92.48-4 91.68-5.96Q90.88-7.92 90.88-10.32L90.88-10.32Q90.88-12.80 91.72-14.86Q92.56-16.92 94.10-18.42Q95.64-19.92 97.74-20.76Q99.84-21.60 102.36-21.60L102.36-21.60Q106.60-21.60 108.96-19.32Q111.32-17.04 111.32-12.92L111.32-12.92Q111.32-12.28 111.12-12.14Q110.92-12 110.00-12L110.00-12L97.12-12Q96.96-11.64 96.96-10.68L96.96-10.68Q96.96-6.76 98.66-4.48Q100.36-2.20 103.28-2.20L103.28-2.20Q104.96-2.20 106.62-2.96Q108.28-3.72 109.84-5.12L109.84-5.12ZM97.40-14.24L103.20-14.24Q104.80-14.24 105.26-14.42Q105.72-14.60 105.72-15.28L105.72-15.28Q105.72-17.04 104.72-18.16Q103.72-19.28 102.20-19.28L102.20-19.28Q100.48-19.28 99.14-17.86Q97.80-16.44 97.40-14.24L97.40-14.24Z M135.24-5.12L136.36-3.72Q132.72 0.40 127.28 0.40L127.28 0.40Q124.80 0.40 122.78-0.38Q120.76-1.16 119.32-2.58Q117.88-4 117.08-5.96Q116.28-7.92 116.28-10.32L116.28-10.32Q116.28-12.80 117.12-14.86Q117.96-16.92 119.50-18.42Q121.04-19.92 123.14-20.76Q125.24-21.60 127.76-21.60L127.76-21.60Q132.00-21.60 134.36-19.32Q136.72-17.04 136.72-12.92L136.72-12.92Q136.72-12.28 136.52-12.14Q136.32-12 135.40-12L135.40-12L122.52-12Q122.36-11.64 122.36-10.68L122.36-10.68Q122.36-6.76 124.06-4.48Q125.76-2.20 128.68-2.20L128.68-2.20Q130.36-2.20 132.02-2.96Q133.68-3.72 135.24-5.12L135.24-5.12ZM122.80-14.24L128.60-14.24Q130.20-14.24 130.66-14.42Q131.12-14.60 131.12-15.28L131.12-15.28Q131.12-17.04 130.12-18.16Q129.12-19.28 127.60-19.28L127.60-19.28Q125.88-19.28 124.54-17.86Q123.20-16.44 122.80-14.24L122.80-14.24Z M150.04-33.20L150.04-6.56Q150.04-4.96 150.16-4Q150.28-3.04 150.64-2.52Q151.00-2 151.68-1.82Q152.36-1.64 153.52-1.60L153.52-1.60L153.52 0L140.92 0L140.92-1.60Q142.04-1.64 142.74-1.86Q143.44-2.08 143.82-2.58Q144.20-3.08 144.34-3.98Q144.48-4.88 144.48-6.28L144.48-6.28L144.48-22.80Q144.48-25.12 144.40-26.62Q144.32-28.12 144.20-28.68L144.20-28.68Q144.00-29.68 143.30-30Q142.60-30.32 140.76-30.32L140.76-30.32L140.76-31.68L150.04-33.20Z"/></g>
</svg>
</g><g opacity="1" transform="rotate(0 287.0186 559.9277)">
<svg width="183.7611" height="199.6131" x="287.0186" y="559.9277" version="1.1" preserveAspectRatio="none" viewBox="0.6310000419616699 0.5289896726608276 3.813999652862549 4.143010139465332">
  <g transform="matrix(1 0 0 1 0 0)" class="icon1"><g><path d="M2.404,0.685c0,0.068-0.071,0.14-0.14,0.14c-0.085,0-0.156-0.072-0.156-0.14   c0-0.084,0.071-0.156,0.156-0.156C2.333,0.528,2.404,0.6,2.404,0.685z"></path><path d="M2.952,0.685c0,0.068-0.069,0.14-0.141,0.14c-0.084,0-0.153-0.072-0.153-0.14   c0-0.084,0.068-0.156,0.153-0.156C2.883,0.528,2.952,0.6,2.952,0.685z"></path><path d="M3.572,0.894c0,0.085-0.068,0.141-0.141,0.141c-0.086,0-0.154-0.056-0.154-0.141   c0-0.084,0.068-0.153,0.154-0.153C3.504,0.741,3.572,0.809,3.572,0.894z"></path><path d="M3.25,1.895c0,0.084-0.072,0.153-0.158,0.153c-0.067,0-0.14-0.069-0.14-0.153   c0-0.072,0.072-0.141,0.14-0.141C3.178,1.754,3.25,1.823,3.25,1.895z"></path><path d="M3.572,2.583c0,0.084-0.068,0.156-0.141,0.156c-0.086,0-0.154-0.072-0.154-0.156   c0-0.085,0.068-0.141,0.154-0.141C3.504,2.442,3.572,2.499,3.572,2.583z"></path><g><path d="M2.896,4.559c-0.026,0-0.047-0.02-0.047-0.046V2.237L2.232,1.618C2.224,1.609,2.218,1.597,2.218,1.585    V0.685c0-0.026,0.021-0.047,0.047-0.047c0.025,0,0.046,0.021,0.046,0.047v0.881l0.618,0.619c0.008,0.008,0.014,0.021,0.014,0.033    v2.295C2.943,4.539,2.922,4.559,2.896,4.559z"></path></g><g><rect x="1.928" y="1.193" transform="matrix(0.7065 0.7078 -0.7078 0.7065 1.4986 -1.1337)" width="0.377" height="0.093"></rect></g><g><polygon points="2.929,2.604 2.863,2.538 3.385,2.016 3.385,0.922 3.479,0.922 3.479,2.055 3.463,2.069   "></polygon></g><path d="M3.25,1.106c0,0.085-0.072,0.142-0.158,0.142c-0.067,0-0.14-0.057-0.14-0.142c0-0.083,0.072-0.14,0.14-0.14   C3.178,0.966,3.25,1.022,3.25,1.106z"></path><path d="M3.896,2.007c0,0.069-0.07,0.141-0.156,0.141C3.672,2.148,3.6,2.076,3.6,2.007   c0-0.084,0.072-0.156,0.141-0.156C3.826,1.851,3.896,1.923,3.896,2.007z"></path><g><polygon points="3.904,2.576 3.693,2.365 3.693,2.036 3.787,2.036 3.787,2.326 3.971,2.51   "></polygon></g><path d="M3.756,1.316c0,0.084,0.057,0.141,0.141,0.141c0.086,0,0.154-0.056,0.154-0.141   c0-0.085-0.068-0.154-0.154-0.154C3.812,1.163,3.756,1.231,3.756,1.316z"></path><g><rect x="3.597" y="1.265" transform="matrix(0.6912 0.7226 -0.7226 0.6912 2.2648 -2.146)" width="0.093" height="0.625"></rect></g><g><rect x="2.927" y="1.032" transform="matrix(0.7251 0.6886 -0.6886 0.7251 1.6781 -1.7041)" width="0.094" height="0.437"></rect></g><g><rect x="2.351" y="1.092" transform="matrix(0.7277 0.6859 -0.6859 0.7277 1.551 -1.2875)" width="0.093" height="0.437"></rect></g><g><rect x="1.82" y="1.781" transform="matrix(0.7251 0.6886 -0.6886 0.7251 1.8903 -0.7361)" width="0.094" height="0.437"></rect></g><g><rect x="3.123" y="1.774" transform="matrix(-0.6913 0.7225 -0.7225 -0.6913 6.8001 1.0785)" width="0.094" height="0.435"></rect></g><path d="M4.15,2.133c0,0.084,0.068,0.156,0.141,0.156c0.086,0,0.154-0.072,0.154-0.156S4.377,1.992,4.291,1.992   C4.219,1.992,4.15,2.048,4.15,2.133z"></path><g><path d="M3.262,4.403c-0.025,0-0.047-0.022-0.047-0.048V3.19c0-0.013,0.006-0.024,0.016-0.033l1-1.014    c0.018-0.019,0.047-0.019,0.064,0c0.02,0.018,0.02,0.048,0,0.066l-0.986,1v1.146C3.309,4.381,3.289,4.403,3.262,4.403z"></path></g><g><rect x="3.117" y="2.472" transform="matrix(0.7045 0.7097 -0.7097 0.7045 2.9579 -1.4031)" width="0.094" height="0.756"></rect></g><path d="M4.135,2.936c0,0.069-0.057,0.141-0.141,0.141S3.84,3.005,3.84,2.936c0-0.084,0.07-0.155,0.154-0.155   S4.135,2.852,4.135,2.936z"></path><g><rect x="3.575" y="2.78" transform="matrix(0.7123 0.7018 -0.7018 0.7123 3.3593 -1.5923)" width="0.093" height="1.043"></rect></g><path d="M1.504,0.894c0,0.085,0.069,0.141,0.141,0.141c0.084,0,0.153-0.056,0.153-0.141   c0-0.084-0.068-0.153-0.153-0.153C1.573,0.741,1.504,0.809,1.504,0.894z"></path><path d="M1.827,1.895c0,0.084,0.072,0.153,0.14,0.153c0.085,0,0.157-0.069,0.157-0.153   c0-0.072-0.072-0.141-0.157-0.141C1.898,1.754,1.827,1.823,1.827,1.895z"></path><path d="M1.504,2.583c0,0.084,0.056,0.156,0.141,0.156s0.153-0.072,0.153-0.156c0-0.085-0.068-0.141-0.153-0.141   S1.504,2.499,1.504,2.583z"></path><g><path d="M2.179,4.559c-0.025,0-0.046-0.02-0.046-0.046V2.217c0-0.012,0.005-0.024,0.014-0.033l0.618-0.619V0.685    c0-0.026,0.022-0.047,0.047-0.047c0.026,0,0.047,0.021,0.047,0.047v0.901c0,0.012-0.005,0.024-0.014,0.033L2.226,2.237v2.276    C2.226,4.539,2.205,4.559,2.179,4.559z"></path></g><g><polygon points="2.146,2.604 1.598,2.055 1.598,0.922 1.691,0.922 1.691,2.016 2.212,2.538   "></polygon></g><path d="M1.827,1.106c0,0.085,0.072,0.142,0.14,0.142c0.085,0,0.157-0.057,0.157-0.142   c0-0.083-0.072-0.14-0.157-0.14C1.898,0.966,1.827,1.022,1.827,1.106z"></path><path d="M1.179,2.007c0,0.069,0.071,0.141,0.14,0.141c0.084,0,0.156-0.072,0.156-0.141   c0-0.084-0.072-0.156-0.156-0.156C1.25,1.851,1.179,1.923,1.179,2.007z"></path><g><polygon points="1.156,2.576 1.09,2.51 1.273,2.326 1.273,2.036 1.366,2.036 1.366,2.365   "></polygon></g><path d="M2.377,1.191c0,0.084,0.068,0.141,0.153,0.141c0.083,0,0.14-0.057,0.14-0.141   c0-0.085-0.057-0.156-0.14-0.156C2.445,1.035,2.377,1.106,2.377,1.191z"></path><path d="M2.377,2.289c0,0.068,0.068,0.141,0.153,0.141c0.083,0,0.14-0.073,0.14-0.141   c0-0.084-0.057-0.156-0.14-0.156C2.445,2.133,2.377,2.205,2.377,2.289z"></path><path d="M2.377,3.443c0,0.084,0.068,0.153,0.153,0.153c0.083,0,0.14-0.069,0.14-0.153S2.614,3.303,2.53,3.303   C2.445,3.303,2.377,3.359,2.377,3.443z"></path><path d="M1.319,1.316c0,0.084-0.069,0.141-0.14,0.141c-0.085,0-0.154-0.056-0.154-0.141   c0-0.085,0.069-0.154,0.154-0.154C1.25,1.163,1.319,1.231,1.319,1.316z"></path><g><rect x="1.118" y="1.531" transform="matrix(0.7095 0.7047 -0.7047 0.7095 1.5261 -0.5466)" width="0.617" height="0.093"></rect></g><path d="M0.925,2.133c0,0.084-0.068,0.156-0.153,0.156c-0.072,0-0.141-0.072-0.141-0.156S0.7,1.992,0.772,1.992   C0.856,1.992,0.925,2.048,0.925,2.133z"></path><g><path d="M1.814,4.403c-0.026,0-0.046-0.022-0.046-0.048V3.209l-0.988-1c-0.018-0.018-0.018-0.048,0-0.066    c0.018-0.018,0.047-0.018,0.066,0l1.001,1.014C1.855,3.166,1.861,3.178,1.861,3.19v1.165C1.861,4.381,1.839,4.403,1.814,4.403z"></path></g><g><rect x="1.535" y="2.803" transform="matrix(0.7078 0.7065 -0.7065 0.7078 2.5725 -0.518)" width="0.755" height="0.094"></rect></g><path d="M0.941,2.936c0,0.069,0.057,0.141,0.141,0.141c0.085,0,0.141-0.072,0.141-0.141   c0-0.084-0.056-0.155-0.141-0.155C0.998,2.781,0.941,2.852,0.941,2.936z"></path><g><rect x="0.931" y="3.256" transform="matrix(0.7076 0.7066 -0.7066 0.7076 2.7567 -0.0576)" width="1.034" height="0.093"></rect></g><g><path d="M2.53,4.672c-0.026,0-0.047-0.021-0.047-0.047V2.261c0-0.025,0.021-0.046,0.047-0.046    s0.047,0.021,0.047,0.046v2.364C2.577,4.65,2.556,4.672,2.53,4.672z"></path></g><g><path d="M2.53,4.672c-0.026,0-0.047-0.021-0.047-0.047V2.261c0-0.025,0.021-0.046,0.047-0.046    s0.047,0.021,0.047,0.046v2.364C2.577,4.65,2.556,4.672,2.53,4.672z"></path></g></g></g>
</svg>
</g></svg></svg>