<svg version="1.1" preserveAspectRatio="none" xmlns="http://www.w3.org/2000/svg" width="500" height="500" viewBox="0 0 500 500"><rect width="100%" height="100%" fill="#0A0A0A" fill-opacity="1"/><svg viewBox="106.5252 371.6972 385.9943 220" width="333" height="189.7955487943734" x="83.5px" y="155.1022px" xmlns="http://www.w3.org/2000/svg" xmlns:xlink="http://www.w3.org/1999/xlink" preserveAspectRatio="none"><defs></defs><style>.companyName {fill:#E9E9E9;fill-opacity:1;}.icon2 {fill:#7065EF;fill-opacity:1;}.icon3 {fill:#C4C4C4;fill-opacity:1;}.icon3-str {stroke:#C4C4C4;stroke-opacity:1;}.shape {fill:#28208C;fill-opacity:1;}.text {fill:#E9E9E9;fill-opacity:1;}</style><g opacity="1" transform="rotate(0 133.9495 371.6972)">
<svg width="331.1457" height="220" x="133.9495" y="371.6972" version="1.1" preserveAspectRatio="none" viewBox="4.200999736785889 21.96699905395508 89.02999114990234 59.14799880981445">
  <g transform="matrix(1 0 0 1 0 0)" class="shape"><g><circle cx="46.796" cy="22.734" r="0.767"></circle><circle cx="46.796" cy="26.58" r="0.886"></circle><circle cx="46.796" cy="30.425" r="1.004"></circle><circle cx="46.797" cy="34.271" r="1.12"></circle><circle cx="46.796" cy="38.079" r="1.24"></circle><circle cx="46.797" cy="41.963" r="1.356"></circle><circle cx="46.797" cy="45.809" r="1.476"></circle><circle cx="43.004" cy="22.734" r="0.767"></circle><circle cx="43.004" cy="26.58" r="0.886"></circle><circle cx="43.004" cy="30.425" r="1.004"></circle><circle cx="43.004" cy="34.271" r="1.12"></circle><circle cx="43.004" cy="38.079" r="1.24"></circle><circle cx="43.004" cy="41.963" r="1.356"></circle><circle cx="43.004" cy="80.348" r="0.767"></circle><circle cx="43.004" cy="76.57" r="0.886"></circle><circle cx="43.004" cy="72.723" r="1.003"></circle><circle cx="43.004" cy="68.876" r="1.121"></circle><circle cx="43.004" cy="65.031" r="1.239"></circle><circle cx="43.004" cy="61.186" r="1.356"></circle><circle cx="46.796" cy="80.348" r="0.767"></circle><circle cx="46.796" cy="76.57" r="0.886"></circle><circle cx="46.796" cy="72.723" r="1.003"></circle><circle cx="46.797" cy="68.876" r="1.121"></circle><circle cx="46.796" cy="65.031" r="1.239"></circle><circle cx="46.797" cy="61.186" r="1.356"></circle><circle cx="43.004" cy="45.809" r="1.476"></circle><circle cx="46.797" cy="49.447" r="1.476"></circle><circle cx="43.004" cy="49.447" r="1.476"></circle><circle cx="46.797" cy="53.083" r="1.475"></circle><circle cx="43.004" cy="53.083" r="1.475"></circle><circle cx="46.797" cy="57.024" r="1.475"></circle><circle cx="50.594" cy="22.734" r="0.767"></circle><circle cx="50.591" cy="26.58" r="0.886"></circle><circle cx="50.586" cy="30.425" r="1.004"></circle><circle cx="50.582" cy="34.271" r="1.12"></circle><circle cx="50.578" cy="38.079" r="1.24"></circle><circle cx="50.573" cy="41.963" r="1.356"></circle><circle cx="50.57" cy="45.809" r="1.476"></circle><circle cx="50.594" cy="80.348" r="0.767"></circle><circle cx="50.591" cy="76.57" r="0.886"></circle><circle cx="50.586" cy="72.723" r="1.003"></circle><circle cx="50.582" cy="68.876" r="1.121"></circle><circle cx="50.578" cy="65.031" r="1.239"></circle><circle cx="50.573" cy="61.186" r="1.356"></circle><circle cx="50.57" cy="49.447" r="1.476"></circle><circle cx="50.57" cy="53.083" r="1.475"></circle><circle cx="50.57" cy="57.024" r="1.475"></circle><circle cx="54.53" cy="76.57" r="0.886"></circle><circle cx="54.525" cy="72.723" r="1.003"></circle><circle cx="54.522" cy="68.876" r="1.121"></circle><circle cx="54.52" cy="65.031" r="1.239"></circle><circle cx="58.309" cy="49.571" r="1.24"></circle><circle cx="62.145" cy="49.571" r="1.144"></circle><circle cx="65.983" cy="49.571" r="1.049"></circle><circle cx="69.821" cy="49.571" r="0.954"></circle><circle cx="73.659" cy="49.571" r="0.859"></circle><circle cx="77.497" cy="49.571" r="0.763"></circle><circle cx="81.334" cy="49.571" r="0.668"></circle><circle cx="85.172" cy="49.571" r="0.573"></circle><circle cx="89.01" cy="49.571" r="0.479"></circle><circle cx="92.848" cy="49.571" r="0.383"></circle><path d="M35.535,52.165c0.684,0,1.239,0.553,1.239,1.238s-0.556,1.24-1.239,1.24s-1.238-0.555-1.238-1.24   C34.297,52.722,34.852,52.165,35.535,52.165z"></path><circle cx="31.698" cy="53.403" r="1.144"></circle><circle cx="27.713" cy="53.403" r="0.764"></circle><circle cx="23.876" cy="53.403" r="0.668"></circle><circle cx="20.038" cy="53.403" r="0.573"></circle><circle cx="16.2" cy="53.403" r="0.479"></circle><circle cx="12.363" cy="53.403" r="0.383"></circle><circle cx="58.356" cy="57.149" r="1.144"></circle><circle cx="62.194" cy="57.149" r="1.049"></circle><circle cx="66.032" cy="57.149" r="0.953"></circle><circle cx="69.87" cy="57.149" r="0.858"></circle><circle cx="73.707" cy="57.149" r="0.763"></circle><circle cx="77.545" cy="57.149" r="0.669"></circle><circle cx="81.383" cy="57.149" r="0.572"></circle><circle cx="85.221" cy="57.149" r="0.479"></circle><circle cx="89.058" cy="57.149" r="0.383"></circle><circle cx="58.356" cy="60.788" r="1.144"></circle><circle cx="62.194" cy="60.788" r="1.049"></circle><circle cx="66.032" cy="60.788" r="0.953"></circle><path d="M70.729,60.788c0,0.473-0.384,0.857-0.859,0.857c-0.474,0-0.857-0.385-0.857-0.857c0-0.477,0.384-0.859,0.857-0.859   C70.345,59.929,70.729,60.312,70.729,60.788z"></path><circle cx="73.707" cy="60.788" r="0.763"></circle><circle cx="77.545" cy="60.788" r="0.669"></circle><circle cx="81.383" cy="60.788" r="0.572"></circle><circle cx="85.221" cy="60.788" r="0.479"></circle><circle cx="89.058" cy="60.788" r="0.383"></circle><circle cx="58.449" cy="65.032" r="0.668"></circle><circle cx="62.286" cy="65.032" r="0.573"></circle><circle cx="66.124" cy="65.032" r="0.477"></circle><circle cx="69.963" cy="65.031" r="0.384"></circle><circle cx="58.449" cy="68.972" r="0.668"></circle><circle cx="62.286" cy="68.972" r="0.573"></circle><circle cx="66.124" cy="68.972" r="0.477"></circle><circle cx="69.963" cy="68.973" r="0.382"></circle><circle cx="58.449" cy="72.761" r="0.668"></circle><circle cx="62.286" cy="72.761" r="0.573"></circle><circle cx="66.124" cy="72.761" r="0.477"></circle><circle cx="69.963" cy="72.762" r="0.382"></circle><path d="M59.117,76.548c0,0.369-0.3,0.67-0.669,0.67s-0.668-0.301-0.668-0.67c0-0.367,0.299-0.666,0.668-0.666   S59.117,76.181,59.117,76.548z"></path><path d="M62.858,76.548c0,0.318-0.255,0.576-0.572,0.576c-0.316,0-0.573-0.258-0.573-0.576c0-0.314,0.257-0.57,0.573-0.57   C62.604,75.978,62.858,76.233,62.858,76.548z"></path><path d="M66.601,76.548c0,0.264-0.212,0.48-0.478,0.48c-0.263,0-0.477-0.217-0.477-0.48c0-0.262,0.214-0.477,0.477-0.477   C66.389,76.071,66.601,76.286,66.601,76.548z"></path><circle cx="39.236" cy="80.348" r="0.767"></circle><circle cx="35.301" cy="80.349" r="0.573"></circle><circle cx="31.464" cy="80.349" r="0.478"></circle><circle cx="27.627" cy="80.349" r="0.383"></circle><circle cx="58.309" cy="53.209" r="1.239"></circle><circle cx="62.145" cy="53.21" r="1.144"></circle><circle cx="65.983" cy="53.21" r="1.049"></circle><circle cx="69.821" cy="53.21" r="0.954"></circle><circle cx="73.659" cy="53.21" r="0.859"></circle><circle cx="77.497" cy="53.21" r="0.763"></circle><circle cx="81.334" cy="53.21" r="0.668"></circle><circle cx="85.172" cy="53.21" r="0.573"></circle><circle cx="89.01" cy="53.21" r="0.479"></circle><circle cx="54.514" cy="61.186" r="1.356"></circle><circle cx="54.511" cy="49.447" r="1.476"></circle><circle cx="58.309" cy="45.783" r="1.239"></circle><circle cx="62.145" cy="45.782" r="1.144"></circle><circle cx="65.983" cy="45.782" r="1.049"></circle><circle cx="69.821" cy="45.782" r="0.954"></circle><circle cx="73.659" cy="45.782" r="0.859"></circle><circle cx="77.497" cy="45.782" r="0.763"></circle><path d="M82.002,45.782c0,0.369-0.299,0.67-0.667,0.67c-0.369,0-0.669-0.301-0.669-0.67c0-0.367,0.3-0.668,0.669-0.668   C81.703,45.114,82.002,45.415,82.002,45.782z"></path><circle cx="85.172" cy="45.782" r="0.573"></circle><circle cx="89.01" cy="45.782" r="0.479"></circle><circle cx="92.848" cy="45.782" r="0.383"></circle><circle cx="35.441" cy="45.632" r="0.954"></circle><circle cx="31.604" cy="45.632" r="0.858"></circle><circle cx="27.766" cy="45.632" r="0.764"></circle><circle cx="23.928" cy="45.632" r="0.668"></circle><circle cx="20.09" cy="45.632" r="0.573"></circle><circle cx="16.252" cy="45.632" r="0.478"></circle><circle cx="12.414" cy="45.631" r="0.382"></circle><circle cx="35.368" cy="30.323" r="0.574"></circle><circle cx="31.529" cy="30.323" r="0.479"></circle><circle cx="27.692" cy="30.323" r="0.383"></circle><circle cx="35.368" cy="34.265" r="0.689"></circle><circle cx="31.529" cy="34.265" r="0.479"></circle><circle cx="27.692" cy="34.265" r="0.383"></circle><circle cx="35.463" cy="26.687" r="0.478"></circle><path d="M54.52,43.233c-0.686,0-1.24-0.555-1.24-1.24c0-0.682,0.555-1.238,1.24-1.238c0.683,0,1.237,0.557,1.237,1.238   C55.757,42.679,55.202,43.233,54.52,43.233z"></path><circle cx="58.356" cy="41.993" r="1.144"></circle><circle cx="62.194" cy="41.993" r="1.049"></circle><circle cx="54.52" cy="38.079" r="1.24"></circle><circle cx="58.356" cy="38.079" r="1.144"></circle><circle cx="62.194" cy="38.079" r="1.049"></circle><circle cx="66.032" cy="41.993" r="0.953"></circle><path d="M70.729,41.993c0,0.473-0.384,0.861-0.859,0.861c-0.474,0-0.857-0.389-0.857-0.861s0.384-0.859,0.857-0.859   C70.345,41.134,70.729,41.521,70.729,41.993z"></path><circle cx="54.464" cy="34.265" r="1.049"></circle><circle cx="58.302" cy="34.265" r="0.954"></circle><circle cx="62.14" cy="34.265" r="0.859"></circle><circle cx="73.707" cy="41.993" r="0.763"></circle><circle cx="77.545" cy="41.993" r="0.669"></circle><circle cx="66.027" cy="38.079" r="0.667"></circle><circle cx="81.383" cy="41.993" r="0.572"></circle><circle cx="69.864" cy="38.079" r="0.573"></circle><circle cx="85.221" cy="41.993" r="0.479"></circle><circle cx="89.058" cy="41.995" r="0.383"></circle><circle cx="73.6" cy="38.079" r="0.383"></circle><circle cx="35.251" cy="38.079" r="1.144"></circle><circle cx="31.413" cy="38.079" r="1.049"></circle><circle cx="27.58" cy="38.079" r="0.668"></circle><circle cx="23.743" cy="38.079" r="0.573"></circle><circle cx="20.008" cy="38.079" r="0.383"></circle><circle cx="35.251" cy="42.019" r="1.144"></circle><circle cx="31.413" cy="42.019" r="1.049"></circle><circle cx="27.58" cy="42.019" r="0.668"></circle><circle cx="23.743" cy="42.019" r="0.573"></circle><circle cx="20.008" cy="42.021" r="0.383"></circle><circle cx="54.616" cy="30.349" r="1.048"></circle><path d="M59.117,30.349c0,0.369-0.3,0.67-0.669,0.67s-0.668-0.301-0.668-0.67c0-0.367,0.299-0.668,0.668-0.668   S59.117,29.981,59.117,30.349z"></path><circle cx="62.286" cy="30.349" r="0.573"></circle><circle cx="66.021" cy="30.35" r="0.384"></circle><circle cx="54.405" cy="26.712" r="0.573"></circle><circle cx="58.141" cy="26.712" r="0.383"></circle><circle cx="54.511" cy="45.658" r="1.476"></circle><circle cx="54.511" cy="53.083" r="1.475"></circle><circle cx="54.511" cy="57.024" r="1.475"></circle><circle cx="43.004" cy="57.024" r="1.475"></circle><circle cx="39.237" cy="26.58" r="0.886"></circle><circle cx="39.237" cy="30.425" r="1.004"></circle><circle cx="35.368" cy="76.399" r="0.574"></circle><circle cx="31.529" cy="76.399" r="0.479"></circle><circle cx="27.692" cy="76.397" r="0.383"></circle><circle cx="39.237" cy="76.5" r="1.003"></circle><circle cx="39.237" cy="34.271" r="1.12"></circle><circle cx="39.237" cy="38.079" r="1.24"></circle><path d="M34.107,72.329c0-0.629,0.512-1.143,1.143-1.143c0.633,0,1.146,0.514,1.146,1.143c0,0.635-0.513,1.146-1.146,1.146   C34.619,73.476,34.107,72.964,34.107,72.329z"></path><path d="M30.364,72.329c0-0.576,0.47-1.047,1.049-1.047c0.58,0,1.049,0.471,1.049,1.047c0,0.584-0.469,1.053-1.049,1.053   C30.834,73.382,30.364,72.913,30.364,72.329z"></path><path d="M26.912,72.329c0-0.365,0.301-0.666,0.669-0.666c0.369,0,0.667,0.301,0.667,0.666c0,0.371-0.298,0.67-0.667,0.67   C27.213,72.999,26.912,72.7,26.912,72.329z"></path><path d="M23.17,72.329c0-0.314,0.257-0.57,0.573-0.57s0.572,0.256,0.572,0.57c0,0.318-0.256,0.574-0.572,0.574   S23.17,72.647,23.17,72.329z"></path><path d="M20.008,71.948c0.212,0,0.384,0.17,0.384,0.381c0,0.215-0.172,0.385-0.384,0.385c-0.21,0-0.383-0.17-0.383-0.385   C19.625,72.118,19.798,71.948,20.008,71.948z"></path><path d="M39.237,71.093c-0.687,0-1.24,0.553-1.24,1.236c0,0.688,0.554,1.24,1.24,1.24c0.684,0,1.238-0.553,1.238-1.24   C40.476,71.646,39.921,71.093,39.237,71.093z"></path><circle cx="39.237" cy="41.963" r="1.356"></circle><circle cx="35.251" cy="49.446" r="1.144"></circle><circle cx="31.413" cy="49.446" r="1.049"></circle><circle cx="27.58" cy="49.446" r="0.668"></circle><circle cx="23.743" cy="49.446" r="0.573"></circle><circle cx="20.008" cy="49.446" r="0.383"></circle><path d="M39.237,48.032c-0.751,0-1.357,0.609-1.357,1.359c0,0.746,0.606,1.355,1.357,1.355c0.748,0,1.356-0.609,1.356-1.355   C40.594,48.642,39.985,48.032,39.237,48.032z"></path><circle cx="39.237" cy="45.809" r="1.476"></circle><circle cx="39.237" cy="53.404" r="1.474"></circle><circle cx="35.535" cy="57.193" r="1.239"></circle><circle cx="31.698" cy="57.192" r="1.144"></circle><circle cx="27.713" cy="57.192" r="0.764"></circle><circle cx="23.876" cy="57.192" r="0.668"></circle><circle cx="20.038" cy="57.192" r="0.573"></circle><circle cx="16.2" cy="57.192" r="0.479"></circle><circle cx="12.363" cy="57.193" r="0.382"></circle><circle cx="8.422" cy="57.191" r="0.317"></circle><circle cx="4.481" cy="57.193" r="0.28"></circle><circle cx="39.237" cy="57.192" r="1.475"></circle><circle cx="35.535" cy="60.981" r="1.238"></circle><circle cx="31.698" cy="60.981" r="1.144"></circle><path d="M26.949,60.981c0-0.422,0.343-0.762,0.766-0.762c0.42,0,0.762,0.34,0.762,0.762c0,0.424-0.342,0.764-0.762,0.764   C27.292,61.745,26.949,61.405,26.949,60.981z"></path><path d="M23.208,60.983c0-0.369,0.299-0.67,0.668-0.67s0.669,0.299,0.669,0.67c-0.001,0.367-0.3,0.666-0.669,0.666   S23.208,61.351,23.208,60.983z"></path><circle cx="20.038" cy="60.983" r="0.573"></circle><circle cx="16.2" cy="60.981" r="0.479"></circle><circle cx="12.363" cy="60.982" r="0.382"></circle><circle cx="8.422" cy="60.982" r="0.317"></circle><circle cx="4.481" cy="60.982" r="0.28"></circle><circle cx="73.796" cy="65.074" r="0.28"></circle><circle cx="73.796" cy="68.862" r="0.279"></circle><circle cx="39.236" cy="64.923" r="1.238"></circle><circle cx="35.487" cy="64.923" r="1.144"></circle><circle cx="31.503" cy="64.923" r="0.764"></circle><circle cx="27.665" cy="64.923" r="0.669"></circle><circle cx="23.828" cy="64.923" r="0.574"></circle><circle cx="19.989" cy="64.923" r="0.478"></circle><circle cx="16.151" cy="64.923" r="0.383"></circle><circle cx="12.212" cy="64.923" r="0.316"></circle><circle cx="8.271" cy="64.923" r="0.279"></circle><circle cx="39.236" cy="68.711" r="1.239"></circle><circle cx="35.487" cy="68.712" r="1.144"></circle><circle cx="31.503" cy="68.712" r="0.764"></circle><circle cx="27.665" cy="68.712" r="0.669"></circle><circle cx="23.828" cy="68.712" r="0.574"></circle><circle cx="19.989" cy="68.712" r="0.478"></circle><circle cx="16.151" cy="68.712" r="0.383"></circle><circle cx="12.212" cy="68.713" r="0.317"></circle><circle cx="39.237" cy="60.982" r="1.476"></circle></g></g>
</svg>
</g><g opacity="1" transform="rotate(0 241.5357 543.6972)">
<svg width="115.9734" height="22.4" x="241.5357" y="543.6972" version="1.1" preserveAspectRatio="none" viewBox="3.24 -27.28 183.88 35.519999999999996">
  <g transform="matrix(1 0 0 1 0 0)" class="text"><path id="id-6izo4zJp8" d="M22.72-23.60L6.24-23.60L6.24-14.72L20.96-14.72L20.96-11.80L6.24-11.80L6.24-2.88L22.72-2.88L22.72 0L3.24 0L3.24-26.48L22.72-26.48L22.72-23.60Z M30.72-20L33.72-20L33.72-16.88Q34.80-18.32 36.36-19.32Q37.92-20.32 39.92-20.32Q41.92-20.32 43.36-19.76Q44.80-19.20 45.88-18.08L45.88-18.08Q48.36-15.64 48.36-11.64L48.36-11.64L48.36 0L45.36 0L45.36-11.56Q45.36-14.32 43.80-15.96Q42.24-17.60 39.76-17.60L39.76-17.60Q37.24-17.60 35.48-15.92L35.48-15.92Q33.72-14.20 33.72-11.52L33.72-11.52L33.72 0L30.72 0L30.72-20Z M72.96-16.80L72.96-16.80L72.96-20L75.96-20L75.96-0.60Q75.96 3.72 73.50 5.98Q71.04 8.24 66.88 8.24Q62.72 8.24 60.38 6.64Q58.04 5.04 57.20 2.40L57.20 2.40L60.52 2.40Q61.80 5.52 66.36 5.52L66.36 5.52Q69.84 5.52 71.40 3.92Q72.96 2.32 72.96-0.80L72.96-0.80L72.96-3.56Q70.52 0 65.80 0L65.80 0Q61.48 0 58.76-2.96L58.76-2.96Q56.12-5.84 56.12-10.16L56.12-10.16Q56.12-14.48 58.76-17.36L58.76-17.36Q61.48-20.32 66.02-20.32Q70.56-20.32 72.96-16.80ZM66.20-2.72L66.20-2.72Q67.84-2.72 69.12-3.30Q70.40-3.88 71.32-4.88L71.32-4.88Q73.12-6.96 73.12-10.16L73.12-10.16Q73.12-13.36 71.32-15.44L71.32-15.44Q69.36-17.60 66.20-17.60L66.20-17.60Q62.96-17.60 61.00-15.44L61.00-15.44Q59.12-13.32 59.12-10.16L59.12-10.16Q59.12-7 61.00-4.88L61.00-4.88Q62.96-2.72 66.20-2.72Z M85.16 0L85.16-20L88.16-20L88.16 0L85.16 0ZM85.04-27.28L88.28-27.28L88.28-23.36L85.04-23.36L85.04-27.28Z M97.36-20L100.36-20L100.36-16.88Q101.44-18.32 103-19.32Q104.56-20.32 106.56-20.32Q108.56-20.32 110-19.76Q111.44-19.20 112.52-18.08L112.52-18.08Q115-15.64 115-11.64L115-11.64L115 0L112 0L112-11.56Q112-14.32 110.44-15.96Q108.88-17.60 106.40-17.60L106.40-17.60Q103.88-17.60 102.12-15.92L102.12-15.92Q100.36-14.20 100.36-11.52L100.36-11.52L100.36 0L97.36 0L97.36-20Z M132.92-2.40L132.92-2.40Q136.96-2.40 138.72-5.76L138.72-5.76L142-5.76Q140.96-3.04 138.70-1.36Q136.44 0.32 132.88 0.32L132.88 0.32Q128.36 0.32 125.52-2.68L125.52-2.68Q122.76-5.60 122.76-10L122.76-10Q122.76-14.44 125.40-17.32L125.40-17.32Q128.20-20.32 132.68-20.32L132.68-20.32Q137.16-20.32 139.96-17.32L139.96-17.32Q142.60-14.44 142.60-10L142.60-10L142.60-8.80L125.84-8.80Q126.16-6.04 128.04-4.24L128.04-4.24Q129.96-2.40 132.92-2.40ZM132.68-17.60L132.68-17.60Q129.92-17.60 128.04-15.88L128.04-15.88Q126.28-14.24 125.88-11.60L125.88-11.60L139.48-11.60Q139.08-14.24 137.32-15.88L137.32-15.88Q135.44-17.60 132.68-17.60Z M159.20-2.40L159.20-2.40Q163.24-2.40 165-5.76L165-5.76L168.28-5.76Q167.24-3.04 164.98-1.36Q162.72 0.32 159.16 0.32L159.16 0.32Q154.64 0.32 151.80-2.68L151.80-2.68Q149.04-5.60 149.04-10L149.04-10Q149.04-14.44 151.68-17.32L151.68-17.32Q154.48-20.32 158.96-20.32L158.96-20.32Q163.44-20.32 166.24-17.32L166.24-17.32Q168.88-14.44 168.88-10L168.88-10L168.88-8.80L152.12-8.80Q152.44-6.04 154.32-4.24L154.32-4.24Q156.24-2.40 159.20-2.40ZM158.96-17.60L158.96-17.60Q156.20-17.60 154.32-15.88L154.32-15.88Q152.56-14.24 152.16-11.60L152.16-11.60L165.76-11.60Q165.36-14.24 163.60-15.88L163.60-15.88Q161.72-17.60 158.96-17.60Z M186.92-20.32L187.12-20.32L187.12-17.32L186.76-17.32Q183.52-17.32 181.48-14.72L181.48-14.72Q179.56-12.24 179.56-8.80L179.56-8.80L179.56 0L176.56 0L176.56-20L179.56-20L179.56-15.08Q180.52-18.20 183.72-19.68L183.72-19.68Q185.04-20.32 186.92-20.32L186.92-20.32Z"/></g>
</svg>
</g><g opacity="1" transform="rotate(0 106.5252 441.6972)">
<svg width="385.9943" height="80" x="106.5252" y="441.6972" version="1.1" preserveAspectRatio="none" viewBox="-0.64 -29.68 145.51999999999998 30.16">
  <g transform="matrix(1 0 0 1 0 0)" class="companyName"><path id="id-D6z1nYkh7" d="M8.48 0.48Q5.64 0.48 3.26-0.58Q0.88-1.64-0.64-3.60L-0.64-3.60L2.96-7.92Q5.24-4.84 8.16-4.84L8.16-4.84Q12.12-4.84 12.12-9.48L12.12-9.48L12.12-22.80L2.28-22.80L2.28-28L18.56-28L18.56-9.84Q18.56-4.68 16-2.10Q13.44 0.48 8.48 0.48L8.48 0.48Z M45.60-10.68Q45.60-10.56 45.48-9L45.48-9L29.20-9Q29.64-7 31.28-5.84Q32.92-4.68 35.36-4.68L35.36-4.68Q37.04-4.68 38.34-5.18Q39.64-5.68 40.76-6.76L40.76-6.76L44.08-3.16Q41.04 0.32 35.20 0.32L35.20 0.32Q31.56 0.32 28.76-1.10Q25.96-2.52 24.44-5.04Q22.92-7.56 22.92-10.76L22.92-10.76Q22.92-13.92 24.42-16.46Q25.92-19 28.54-20.42Q31.16-21.84 34.40-21.84L34.40-21.84Q37.56-21.84 40.12-20.48Q42.68-19.12 44.14-16.58Q45.60-14.04 45.60-10.68L45.60-10.68ZM34.44-17.12Q32.32-17.12 30.88-15.92Q29.44-14.72 29.12-12.64L29.12-12.64L39.72-12.64Q39.40-14.68 37.96-15.90Q36.52-17.12 34.44-17.12L34.44-17.12Z M55.96-4.80L67.28-4.80L67.28 0L48.08 0L48.08-3.76L59.04-16.72L48.36-16.72L48.36-21.52L66.92-21.52L66.92-17.76L55.96-4.80Z M77.24-18.68Q78.36-20.24 80.26-21.04Q82.16-21.84 84.64-21.84L84.64-21.84L84.64-16.08Q83.60-16.16 83.24-16.16L83.24-16.16Q80.56-16.16 79.04-14.66Q77.52-13.16 77.52-10.16L77.52-10.16L77.52 0L71.28 0L71.28-21.52L77.24-21.52L77.24-18.68Z M109.24-10.68Q109.24-10.56 109.12-9L109.12-9L92.84-9Q93.28-7 94.92-5.84Q96.56-4.68 99.00-4.68L99.00-4.68Q100.68-4.68 101.98-5.18Q103.28-5.68 104.40-6.76L104.40-6.76L107.72-3.16Q104.68 0.32 98.84 0.32L98.84 0.32Q95.20 0.32 92.40-1.10Q89.60-2.52 88.08-5.04Q86.56-7.56 86.56-10.76L86.56-10.76Q86.56-13.92 88.06-16.46Q89.56-19 92.18-20.42Q94.80-21.84 98.04-21.84L98.04-21.84Q101.20-21.84 103.76-20.48Q106.32-19.12 107.78-16.58Q109.24-14.04 109.24-10.68L109.24-10.68ZM98.08-17.12Q95.96-17.12 94.52-15.92Q93.08-14.72 92.76-12.64L92.76-12.64L103.36-12.64Q103.04-14.68 101.60-15.90Q100.16-17.12 98.08-17.12L98.08-17.12Z M134.48-10.68Q134.48-10.56 134.36-9L134.36-9L118.08-9Q118.52-7 120.16-5.84Q121.80-4.68 124.24-4.68L124.24-4.68Q125.92-4.68 127.22-5.18Q128.52-5.68 129.64-6.76L129.64-6.76L132.96-3.16Q129.92 0.32 124.08 0.32L124.08 0.32Q120.44 0.32 117.64-1.10Q114.84-2.52 113.32-5.04Q111.80-7.56 111.80-10.76L111.80-10.76Q111.80-13.92 113.30-16.46Q114.80-19 117.42-20.42Q120.04-21.84 123.28-21.84L123.28-21.84Q126.44-21.84 129-20.48Q131.56-19.12 133.02-16.58Q134.48-14.04 134.48-10.68L134.48-10.68ZM123.32-17.12Q121.20-17.12 119.76-15.92Q118.32-14.72 118.00-12.64L118.00-12.64L128.60-12.64Q128.28-14.68 126.84-15.90Q125.40-17.12 123.32-17.12L123.32-17.12Z M138.64 0L138.64-29.68L144.88-29.68L144.88 0L138.64 0Z"/></g>
</svg>
</g></svg></svg>