<svg version="1.1" preserveAspectRatio="none" xmlns="http://www.w3.org/2000/svg" width="500" height="500" viewBox="0 0 500 500"><rect width="100%" height="100%" fill="#FBFBFB" fill-opacity="1"/><svg viewBox="-455.9263 82.9876 425.2927 273.5309" width="333" height="214.17200365771615" x="83.5px" y="142.914px" xmlns="http://www.w3.org/2000/svg" xmlns:xlink="http://www.w3.org/1999/xlink" preserveAspectRatio="none"><defs></defs><style>.aL7LgFViNzcolors-1 {fill:#EFEEEE;fill-opacity:1;}.aL7LgFViNzcolors-2 {fill:#E9CE34;fill-opacity:1;}.au3jwtCsGccolors-1 {fill:#EFEEEE;fill-opacity:1;}.au3jwtCsGccolors-2 {fill:#E9CE34;fill-opacity:1;}.companyName {fill:#434343;fill-opacity:1;}.icon2 {fill:#EFEEEE;fill-opacity:1;}.icon3 {fill:#EFDEBE;fill-opacity:1;}.icon3-str {stroke:#EFDEBE;stroke-opacity:1;}.shape {fill:#FFBDEA;fill-opacity:1;}.text {fill:#434343;fill-opacity:1;}</style><g opacity="1" transform="rotate(80 -121.5663 96.0729)">
<svg width="210.6141" height="230.0387" x="-121.5663" y="96.0729" version="1.1" preserveAspectRatio="none" viewBox="7.4800004959106445 3.559000015258789 85.03899383544922 92.88200378417969">
  <g transform="matrix(-1 0 0 -1 99.99899482727051 100.00000381469727)" class="icon3"><g><path d="M29.327,21.657c1.039-1.028,1.039-2.721,0-3.759l-3.757-3.76c-1.027-1.027-2.721-1.027-3.76,0   c-1.028,1.039-1.028,2.731,0,3.76l3.76,3.759C26.605,22.696,28.3,22.696,29.327,21.657z"></path><path d="M52.658,14.204c0.726,0,1.391-0.303,1.877-0.791c0.48-0.479,0.779-1.141,0.779-1.881V6.218   c0-1.463-1.192-2.659-2.656-2.659c-1.097,0-2.047,0.676-2.447,1.63L50,6.229v5.317C50,13.007,51.192,14.204,52.658,14.204z"></path><path d="M15.455,40.772H10.14c-1.459,0-2.66,1.197-2.66,2.66s1.201,2.659,2.66,2.659h5.314   c1.465,0,2.659-1.196,2.659-2.659S16.919,40.772,15.455,40.772z"></path><path d="M81.94,17.898c-1.029-1.028-2.722-1.028-3.762,0l-3.757,3.759c-1.03,1.039-1.03,2.731,0,3.76   c1.035,1.036,2.729,1.036,3.757,0l3.762-3.76C82.977,20.629,82.977,18.937,81.94,17.898z"></path><path d="M89.861,46.079h-5.314c-1.459,0-2.66,1.197-2.66,2.66c0,1.462,1.201,2.654,2.66,2.654h5.314   c1.462,0,2.658-1.192,2.658-2.654C92.52,47.275,91.323,46.079,89.861,46.079z"></path><path d="M50,25.109c-13.296,0-24.113,10.838-24.113,24.161c0,7.822,3.699,15.008,9.985,19.552V78.93h6.294V67.145   c0-1.09-0.563-2.102-1.491-2.676c-5.319-3.29-8.494-8.971-8.494-15.198c0-9.853,7.995-17.868,17.82-17.868   c9.826,0,17.815,8.015,17.815,17.868c0,6.229-3.172,11.909-8.49,15.198c-0.926,0.571-1.491,1.586-1.491,2.676V78.93h6.294V68.822   c6.281-4.543,9.981-11.728,9.981-19.552C74.109,35.948,63.296,25.109,50,25.109z"></path><path d="M50,90.148c-3.261,0-6.031-2.014-7.185-4.926h-6.57C37.602,91.719,43.242,96.441,50,96.441   c6.756,0,12.398-4.723,13.754-11.219h-6.573C56.03,88.135,53.262,90.148,50,90.148z"></path></g></g>
</svg>
</g><g opacity="1" transform="rotate(0 -455.9263 137.753)">
<svg width="33.456" height="35.9216" x="-455.9263" y="137.753" version="1.1" preserveAspectRatio="none" viewBox="26.00017547607422 19.999670028686523 148.99948120117188 160.00106811523438">
  <g transform="matrix(-1 0 0 1 200.9998321533203 0)" ><g><path fill-rule="evenodd" d="M115.12 20.004c19.855-.221 39.097 8.017 50.396 24.742 12.798 18.944 8.233 40.805 9.341 61.895 2.845 54.1-37.294 60.649-82.147 71.32-46.912 11.159-72.85-25.113-65.465-68.702 3.766-22.226 15.96-43.06 30.642-59.897C74.82 29.947 92.493 29.007 115.12 20.004" data-color="1" class="icon3"></path></g></g>
</svg>
</g><g opacity="1" transform="rotate(60 -174.6367 82.9876)">
<svg width="194.9694" height="209.3648" x="-174.6367" y="82.9876" version="1.1" preserveAspectRatio="none" viewBox="26.00017547607422 19.999670028686523 148.99948120117188 160.00106811523438">
  <g transform="matrix(1 0 0 1 0 0)" ><g><path fill-rule="evenodd" d="M115.12 20.004c19.855-.221 39.097 8.017 50.396 24.742 12.798 18.944 8.233 40.805 9.341 61.895 2.845 54.1-37.294 60.649-82.147 71.32-46.912 11.159-72.85-25.113-65.465-68.702 3.766-22.226 15.96-43.06 30.642-59.897C74.82 29.947 92.493 29.007 115.12 20.004" data-color="1" class="shape"></path></g></g>
</svg>
</g><g opacity="1" transform="rotate(0 -402.4703 277.753)">
<svg width="117.9764" height="24" x="-402.4703" y="277.753" version="1.1" preserveAspectRatio="none" viewBox="3.76 -30.88 191.36 38.92">
  <g transform="matrix(1 0 0 1 0 0)" class="text"><path id="id-6izo4zJp8" d="M8.96-4.36L24.76-4.36L24.76 0L3.76 0L3.76-28L24.20-28L24.20-23.64L8.96-23.64L8.96-16.36L22.48-16.36L22.48-12.08L8.96-12.08L8.96-4.36Z M43.40-21.60Q47.44-21.60 49.88-19.24Q52.32-16.88 52.32-12.24L52.32-12.24L52.32 0L47.32 0L47.32-11.60Q47.32-14.40 46-15.82Q44.68-17.24 42.24-17.24L42.24-17.24Q39.48-17.24 37.88-15.58Q36.28-13.92 36.28-10.80L36.28-10.80L36.28 0L31.28 0L31.28-21.36L36.04-21.36L36.04-18.60Q37.28-20.08 39.16-20.84Q41.04-21.60 43.40-21.60L43.40-21.60Z M76.52-21.36L81.28-21.36L81.28-3.24Q81.28 8.04 69.76 8.04L69.76 8.04Q66.68 8.04 63.92 7.26Q61.16 6.48 59.36 5L59.36 5L61.60 1.24Q63.00 2.40 65.14 3.10Q67.28 3.80 69.48 3.80L69.48 3.80Q73.00 3.80 74.64 2.20Q76.28 0.60 76.28-2.68L76.28-2.68L76.28-3.80Q75.00-2.40 73.16-1.68Q71.32-0.96 69.12-0.96L69.12-0.96Q66.08-0.96 63.62-2.26Q61.16-3.56 59.74-5.92Q58.32-8.28 58.32-11.32L58.32-11.32Q58.32-14.36 59.74-16.70Q61.16-19.04 63.62-20.32Q66.08-21.60 69.12-21.60L69.12-21.60Q71.44-21.60 73.34-20.84Q75.24-20.08 76.52-18.52L76.52-18.52L76.52-21.36ZM69.88-5.20Q72.72-5.20 74.54-6.90Q76.36-8.60 76.36-11.32L76.36-11.32Q76.36-14 74.54-15.68Q72.72-17.36 69.88-17.36L69.88-17.36Q67.00-17.36 65.18-15.68Q63.36-14 63.36-11.32L63.36-11.32Q63.36-8.60 65.18-6.90Q67.00-5.20 69.88-5.20L69.88-5.20Z M89.04 0L89.04-21.36L94.04-21.36L94.04 0L89.04 0ZM91.56-24.88Q90.20-24.88 89.28-25.74Q88.36-26.60 88.36-27.88L88.36-27.88Q88.36-29.16 89.28-30.02Q90.20-30.88 91.56-30.88L91.56-30.88Q92.92-30.88 93.84-30.06Q94.76-29.24 94.76-28L94.76-28Q94.76-26.68 93.86-25.78Q92.96-24.88 91.56-24.88L91.56-24.88Z M113.92-21.60Q117.96-21.60 120.40-19.24Q122.84-16.88 122.84-12.24L122.84-12.24L122.84 0L117.84 0L117.84-11.60Q117.84-14.40 116.52-15.82Q115.20-17.24 112.76-17.24L112.76-17.24Q110.00-17.24 108.40-15.58Q106.80-13.92 106.80-10.80L106.80-10.80L106.80 0L101.80 0L101.80-21.36L106.56-21.36L106.56-18.60Q107.80-20.08 109.68-20.84Q111.56-21.60 113.92-21.60L113.92-21.60Z M150.68-10.56Q150.68-10.04 150.60-9.08L150.60-9.08L133.84-9.08Q134.28-6.72 136.14-5.34Q138.00-3.96 140.76-3.96L140.76-3.96Q144.28-3.96 146.56-6.28L146.56-6.28L149.24-3.20Q147.80-1.48 145.60-0.60Q143.40 0.28 140.64 0.28L140.64 0.28Q137.12 0.28 134.44-1.12Q131.76-2.52 130.30-5.02Q128.84-7.52 128.84-10.68L128.84-10.68Q128.84-13.80 130.26-16.30Q131.68-18.80 134.20-20.20Q136.72-21.60 139.88-21.60L139.88-21.60Q143.00-21.60 145.46-20.22Q147.92-18.84 149.30-16.34Q150.68-13.84 150.68-10.56L150.68-10.56ZM139.88-17.60Q137.48-17.60 135.82-16.18Q134.16-14.76 133.80-12.40L133.80-12.40L145.92-12.40Q145.60-14.72 143.96-16.16Q142.32-17.60 139.88-17.60L139.88-17.60Z M176.76-10.56Q176.76-10.04 176.68-9.08L176.68-9.08L159.92-9.08Q160.36-6.72 162.22-5.34Q164.08-3.96 166.84-3.96L166.84-3.96Q170.36-3.96 172.64-6.28L172.64-6.28L175.32-3.20Q173.88-1.48 171.68-0.60Q169.48 0.28 166.72 0.28L166.72 0.28Q163.20 0.28 160.52-1.12Q157.84-2.52 156.38-5.02Q154.92-7.52 154.92-10.68L154.92-10.68Q154.92-13.80 156.34-16.30Q157.76-18.80 160.28-20.20Q162.80-21.60 165.96-21.60L165.96-21.60Q169.08-21.60 171.54-20.22Q174.00-18.84 175.38-16.34Q176.76-13.84 176.76-10.56L176.76-10.56ZM165.96-17.60Q163.56-17.60 161.90-16.18Q160.24-14.76 159.88-12.40L159.88-12.40L172.00-12.40Q171.68-14.72 170.04-16.16Q168.40-17.60 165.96-17.60L165.96-17.60Z M187.52-18.24Q189.68-21.60 195.12-21.60L195.12-21.60L195.12-16.84Q194.48-16.96 193.96-16.96L193.96-16.96Q191.04-16.96 189.40-15.26Q187.76-13.56 187.76-10.36L187.76-10.36L187.76 0L182.76 0L182.76-21.36L187.52-21.36L187.52-18.24Z"/></g>
</svg>
</g><g opacity="1" transform="rotate(0 -402.4703 137.753)">
<svg width="371.8367" height="120" x="-402.4703" y="137.753" version="1.1" preserveAspectRatio="none" viewBox="-0.8 -31.36 120.43999999999998 38.88">
  <g transform="matrix(1 0 0 1 0 0)" class="companyName"><path id="id-D6z1nYkh7" d="M-0.80 7.52L-0.80 6.76Q2 6.68 3.34 4.68Q4.68 2.68 4.68-2.08L4.68-2.08L4.68-24.08Q4.68-25.60 4.44-26.28Q4.20-26.96 3.54-27.20Q2.88-27.44 1.44-27.52L1.44-27.52L1.44-28.32Q3.12-28.20 6.48-28.20L6.48-28.20Q9.76-28.20 11.64-28.32L11.64-28.32L11.64-27.52Q10.20-27.44 9.54-27.20Q8.88-26.96 8.64-26.28Q8.40-25.60 8.40-24.08L8.40-24.08L8.40-9.44Q8.40-6.04 8.28-3.42Q8.16-0.80 7.72 1L7.72 1Q7 3.92 4.78 5.72Q2.56 7.52-0.80 7.52L-0.80 7.52Z M30.04-5.12L30.84-4.80Q30.12-2.60 28.14-1.02Q26.16 0.56 23.36 0.56L23.36 0.56Q20.52 0.56 18.44-0.74Q16.36-2.04 15.26-4.38Q14.16-6.72 14.16-9.80L14.16-9.80Q14.16-13.28 15.28-15.84Q16.40-18.40 18.44-19.78Q20.48-21.16 23.20-21.16L23.20-21.16Q26.80-21.16 28.74-18.98Q30.68-16.80 30.68-12.36L30.68-12.36L18.16-12.36Q18.04-11.24 18.04-9.80L18.04-9.80Q18.04-7.16 18.90-5.20Q19.76-3.24 21.18-2.18Q22.60-1.12 24.16-1.12L24.16-1.12Q26.08-1.12 27.56-2.04Q29.04-2.96 30.04-5.12L30.04-5.12ZM23.04-20.40Q21.16-20.40 19.80-18.56Q18.44-16.72 18.12-13.12L18.12-13.12L26.84-13.12Q26.92-16.24 25.94-18.32Q24.96-20.40 23.04-20.40L23.04-20.40Z M50.12-20.80L38.56-0.60L42.96-0.60Q45.44-0.60 46.84-2.14Q48.24-3.68 48.52-7.04L48.52-7.04L49.44-7.04Q49.44-1.80 49.60 0.16L49.60 0.16Q46.44 0 42.16 0L42.16 0Q38.36 0 34.08 0.20L34.08 0.20L45.64-20L41.24-20Q38.56-20 37.26-18.50Q35.96-17 35.68-13.56L35.68-13.56L34.76-13.56Q34.76-18.80 34.60-20.76L34.60-20.76Q37.76-20.60 42.04-20.60L42.04-20.60Q45.84-20.60 50.12-20.80L50.12-20.80Z M65.20-21.16Q66.80-21.16 67.82-20.24Q68.84-19.32 68.84-18L68.84-18Q68.84-16.96 68.22-16.22Q67.60-15.48 66.56-15.48L66.56-15.48Q65.68-15.48 65.06-16.04Q64.44-16.60 64.44-17.56L64.44-17.56Q64.44-18.88 65.80-19.72L65.80-19.72Q65.52-20.12 64.96-20.12L64.96-20.12Q63.40-20.12 62.12-18.90Q60.84-17.68 60.12-15.92Q59.40-14.16 59.40-12.60L59.40-12.60L59.40-4.12Q59.40-2.28 60.46-1.56Q61.52-0.84 63.64-0.84L63.64-0.84L63.64 0L62.68-0.04Q58.60-0.16 57.48-0.16L57.48-0.16Q56.44-0.16 52.76 0L52.76 0L52.76-0.84Q54.44-0.84 55.12-1.46Q55.80-2.08 55.80-3.72L55.80-3.72L55.80-16.24Q55.80-18.08 55.12-18.92Q54.44-19.76 52.76-19.76L52.76-19.76L52.76-20.60Q54.04-20.48 55.24-20.48L55.24-20.48Q57.76-20.48 59.40-21.04L59.40-21.04L59.40-16.04Q60.12-18.04 61.70-19.60Q63.28-21.16 65.20-21.16L65.20-21.16Z M86.32-5.12L87.12-4.80Q86.40-2.60 84.42-1.02Q82.44 0.56 79.64 0.56L79.64 0.56Q76.80 0.56 74.72-0.74Q72.64-2.04 71.54-4.38Q70.44-6.72 70.44-9.80L70.44-9.80Q70.44-13.28 71.56-15.84Q72.68-18.40 74.72-19.78Q76.76-21.16 79.48-21.16L79.48-21.16Q83.08-21.16 85.02-18.98Q86.96-16.80 86.96-12.36L86.96-12.36L74.44-12.36Q74.32-11.24 74.32-9.80L74.32-9.80Q74.32-7.16 75.18-5.20Q76.04-3.24 77.46-2.18Q78.88-1.12 80.44-1.12L80.44-1.12Q82.36-1.12 83.84-2.04Q85.32-2.96 86.32-5.12L86.32-5.12ZM79.32-20.40Q77.44-20.40 76.08-18.56Q74.72-16.72 74.40-13.12L74.40-13.12L83.12-13.12Q83.20-16.24 82.22-18.32Q81.24-20.40 79.32-20.40L79.32-20.40Z M106.56-5.12L107.36-4.80Q106.64-2.60 104.66-1.02Q102.68 0.56 99.88 0.56L99.88 0.56Q97.04 0.56 94.96-0.74Q92.88-2.04 91.78-4.38Q90.68-6.72 90.68-9.80L90.68-9.80Q90.68-13.28 91.80-15.84Q92.92-18.40 94.96-19.78Q97-21.16 99.72-21.16L99.72-21.16Q103.32-21.16 105.26-18.98Q107.20-16.80 107.20-12.36L107.20-12.36L94.68-12.36Q94.56-11.24 94.56-9.80L94.56-9.80Q94.56-7.16 95.42-5.20Q96.28-3.24 97.70-2.18Q99.12-1.12 100.68-1.12L100.68-1.12Q102.60-1.12 104.08-2.04Q105.56-2.96 106.56-5.12L106.56-5.12ZM99.56-20.40Q97.68-20.40 96.32-18.56Q94.96-16.72 94.64-13.12L94.64-13.12L103.36-13.12Q103.44-16.24 102.46-18.32Q101.48-20.40 99.56-20.40L99.56-20.40Z M116.60-31.36L116.60-3.72Q116.60-2.08 117.28-1.46Q117.96-0.84 119.64-0.84L119.64-0.84L119.64 0Q115.96-0.16 114.80-0.16L114.80-0.16Q113.64-0.16 109.96 0L109.96 0L109.96-0.84Q111.64-0.84 112.32-1.46Q113.00-2.08 113.00-3.72L113.00-3.72L113.00-26.56Q113.00-28.40 112.32-29.24Q111.64-30.08 109.96-30.08L109.96-30.08L109.96-30.92Q111.20-30.80 112.44-30.80L112.44-30.80Q114.96-30.80 116.60-31.36L116.60-31.36Z"/></g>
</svg>
</g></svg></svg>