<svg version="1.1" preserveAspectRatio="none" xmlns="http://www.w3.org/2000/svg" width="500" height="500" viewBox="0 0 500 500"><rect width="100%" height="100%" fill="#101010" fill-opacity="1"/><svg viewBox="217.1087 322.1433 345.7908 138" width="333" height="132.8953806752522" x="83.5px" y="183.5523px" xmlns="http://www.w3.org/2000/svg" xmlns:xlink="http://www.w3.org/1999/xlink" preserveAspectRatio="none"><defs></defs><style>.companyName {fill:#EFEFEF;fill-opacity:1;}.icon1 {fill:#EFEFEF;fill-opacity:1;}.icon3-str {stroke:#C0C0C0;stroke-opacity:1;}</style><g opacity="1" transform="rotate(0 346.4461 444.1433)">
<svg width="87.116" height="16" x="346.4461" y="444.1433" version="1.1" preserveAspectRatio="none" viewBox="2.76 -31.12 228.24 41.92">
  <g transform="matrix(1 0 0 1 0 0)" class="icon1"><path id="id-6izo4zJp8" d="M18.92-24.56L7.32-24.56L7.32-16L17.72-16L17.72-12.48L7.32-12.48L7.32-3.72L18.92-3.72L18.92 0L2.76 0L2.76-28.24L18.92-28.24L18.92-24.56Z M43.68-22.40Q47.52-22.40 49.84-19.92Q52.16-17.44 52.16-12.84L52.16-12.84L52.16 0L47.60 0L47.60-12.36Q47.60-15.32 46.08-16.94Q44.56-18.56 41.92-18.56L41.92-18.56Q39.20-18.56 37.56-16.82Q35.92-15.08 35.92-11.72L35.92-11.72L35.92 0L31.36 0L31.36-22.04L35.92-22.04L35.92-17.20Q36.80-19.68 38.88-21.04Q40.96-22.40 43.68-22.40L43.68-22.40Z M74.32-22.32Q77.32-22.32 79.44-20.84Q81.56-19.36 82.44-16.92L82.44-16.92L82.44-22.04L87-22.04L87 0.24Q87 3.32 85.74 5.70Q84.48 8.08 82.12 9.44Q79.76 10.80 76.52 10.80L76.52 10.80Q71.88 10.80 69.02 8.60Q66.16 6.40 65.44 2.64L65.44 2.64L69.96 2.64Q70.52 4.60 72.12 5.70Q73.72 6.80 76.20 6.80L76.20 6.80Q78.92 6.80 80.68 5.12Q82.44 3.44 82.44 0.24L82.44 0.24L82.44-5.12Q81.56-2.68 79.44-1.20Q77.32 0.28 74.32 0.28L74.32 0.28Q71.44 0.28 69.18-1.08Q66.92-2.44 65.64-5Q64.36-7.56 64.36-11.04L64.36-11.04Q64.36-14.48 65.64-17.04Q66.92-19.60 69.18-20.96Q71.44-22.32 74.32-22.32L74.32-22.32ZM75.72-18.32Q72.68-18.32 70.86-16.38Q69.04-14.44 69.04-11.04L69.04-11.04Q69.04-7.64 70.86-5.70Q72.68-3.76 75.72-3.76L75.72-3.76Q77.64-3.76 79.16-4.66Q80.68-5.56 81.56-7.20Q82.44-8.84 82.44-11.04L82.44-11.04Q82.44-13.20 81.56-14.86Q80.68-16.52 79.16-17.42Q77.64-18.32 75.72-18.32L75.72-18.32Z M99.84-28.44Q99.84-29.60 100.64-30.36Q101.44-31.12 102.76-31.12L102.76-31.12Q104.08-31.12 104.90-30.36Q105.72-29.60 105.72-28.44L105.72-28.44Q105.72-27.28 104.90-26.56Q104.08-25.84 102.76-25.84L102.76-25.84Q101.44-25.84 100.64-26.56Q99.84-27.28 99.84-28.44L99.84-28.44ZM100.48-22.04L105.04-22.04L105.04 0L100.48 0L100.48-22.04Z M130.88-22.40Q134.72-22.40 137.04-19.92Q139.36-17.44 139.36-12.84L139.36-12.84L139.36 0L134.80 0L134.80-12.36Q134.80-15.32 133.28-16.94Q131.76-18.56 129.12-18.56L129.12-18.56Q126.40-18.56 124.76-16.82Q123.12-15.08 123.12-11.72L123.12-11.72L123.12 0L118.56 0L118.56-22.04L123.12-22.04L123.12-17.20Q124-19.68 126.08-21.04Q128.16-22.40 130.88-22.40L130.88-22.40Z M173.16-12.08Q173.16-10.96 173-10.12L173-10.12L156.04-10.12Q156.16-6.72 157.92-5.08Q159.68-3.44 162.28-3.44L162.28-3.44Q164.56-3.44 166.14-4.60Q167.72-5.76 168.08-7.68L168.08-7.68L172.96-7.68Q172.52-5.36 171.12-3.56Q169.72-1.76 167.48-0.74Q165.24 0.28 162.48 0.28L162.48 0.28Q159.28 0.28 156.82-1.08Q154.36-2.44 152.96-5Q151.56-7.56 151.56-11.04L151.56-11.04Q151.56-14.48 152.96-17.04Q154.36-19.60 156.82-20.96Q159.28-22.32 162.48-22.32L162.48-22.32Q165.72-22.32 168.14-20.98Q170.56-19.64 171.86-17.30Q173.16-14.96 173.16-12.08L173.16-12.08ZM168.56-12.20Q168.64-14.36 167.82-15.82Q167-17.28 165.58-17.98Q164.16-18.68 162.48-18.68L162.48-18.68Q159.80-18.68 158-17.04Q156.20-15.40 156.04-12.20L156.04-12.20L168.56-12.20Z M206.04-12.08Q206.04-10.96 205.88-10.12L205.88-10.12L188.92-10.12Q189.04-6.72 190.80-5.08Q192.56-3.44 195.16-3.44L195.16-3.44Q197.44-3.44 199.02-4.60Q200.60-5.76 200.96-7.68L200.96-7.68L205.84-7.68Q205.40-5.36 204.00-3.56Q202.60-1.76 200.36-0.74Q198.12 0.28 195.36 0.28L195.36 0.28Q192.16 0.28 189.70-1.08Q187.24-2.44 185.84-5Q184.44-7.56 184.44-11.04L184.44-11.04Q184.44-14.48 185.84-17.04Q187.24-19.60 189.70-20.96Q192.16-22.32 195.36-22.32L195.36-22.32Q198.60-22.32 201.02-20.98Q203.44-19.64 204.74-17.30Q206.04-14.96 206.04-12.08L206.04-12.08ZM201.44-12.20Q201.52-14.36 200.70-15.82Q199.88-17.28 198.46-17.98Q197.04-18.68 195.36-18.68L195.36-18.68Q192.68-18.68 190.88-17.04Q189.08-15.40 188.92-12.20L188.92-12.20L201.44-12.20Z M223.00-17.72Q224.12-19.88 226.20-21.14Q228.28-22.40 231.00-22.40L231.00-22.40L231.00-17.44L229.64-17.44Q226.64-17.44 224.82-15.98Q223.00-14.52 223.00-11.16L223.00-11.16L223.00 0L218.44 0L218.44-22.04L223.00-22.04L223.00-17.72Z"/></g>
</svg>
</g><g opacity="1" transform="rotate(0 217.1087 322.1433)">
<svg width="345.7908" height="100" x="217.1087" y="322.1433" version="1.1" preserveAspectRatio="none" viewBox="1.6211 -32.2461 144.61329999999998 41.816500000000005">
  <g transform="matrix(1 0 0 1 0 0)" class="companyName"><path id="id-D6z1nYkh7" d="M4.59-0.20L4.59-29.02L15.88-29.02L15.88-4.49Q15.90-1.74 15.05 0.65Q14.20 3.05 12.54 4.89Q10.88 6.74 8.48 7.96Q6.07 9.18 3.03 9.57L3.03 9.57L1.62 7.21Q2.40 6.62 2.96 5.96Q3.52 5.29 3.88 4.42Q4.24 3.55 4.41 2.43Q4.59 1.31 4.59-0.20L4.59-0.20Z M17.07-9.79L17.07-9.79Q17.07-11.46 17.60-12.85Q18.13-14.24 19.06-15.34Q19.98-16.45 21.25-17.27Q22.52-18.09 24.01-18.63Q25.49-19.18 27.11-19.45Q28.73-19.73 30.39-19.73L30.39-19.73Q32.58-19.73 34.37-19.29Q36.16-18.85 37.55-18.09Q38.95-17.32 39.97-16.31Q41-15.29 41.67-14.15Q42.35-13.01 42.67-11.80Q42.99-10.59 42.99-9.43L42.99-9.43L28.23-7.66Q28.66-5.49 29.95-4.30Q31.23-3.11 33.56-3.11L33.56-3.11Q34.83-3.11 35.93-3.42Q37.04-3.73 37.66-4.18L37.66-4.18L39.22-1.45Q38.50-1.07 37.65-0.74Q36.80-0.41 35.78-0.17Q34.75 0.08 33.51 0.22Q32.27 0.37 30.79 0.37L30.79 0.37Q27.23 0.37 24.65-0.46Q22.07-1.29 20.38-2.69Q18.70-4.08 17.88-5.92Q17.07-7.75 17.07-9.79ZM27.99-10.74L33.52-11.43Q33.52-13.96 32.88-15.12Q32.25-16.27 31-16.27L31-16.27Q30.36-16.27 29.81-15.96Q29.26-15.64 28.87-14.98Q28.48-14.32 28.25-13.27Q28.01-12.23 27.99-10.74L27.99-10.74Z M41.28 0.02L51.47-16.15L42.72-16.15L42.72-19.36L64.62-19.36L55.16-3.20L63.86-3.20L63.86 0.02L41.28 0.02Z M64.72 0L64.72-19.36L74.07-19.36L75.01-16.54Q76.13-17.36 77.11-17.96Q78.10-18.55 79.03-18.96Q79.95-19.36 80.82-19.54Q81.69-19.73 82.55-19.73L82.55-19.73Q83.80-19.73 84.81-19.38Q85.81-19.02 86.53-18.38Q87.24-17.73 87.62-16.85Q88-15.96 88-14.88L88-14.88Q88-13.81 87.54-12.91Q87.08-12.01 86.20-11.36Q85.32-10.70 84.04-10.34Q82.77-9.98 81.13-9.98L81.13-9.98L77.69-14.57Q77.12-14.57 76.46-14.34Q75.79-14.10 75.32-13.59L75.32-13.59L75.32 0L64.72 0Z M85.76-9.79L85.76-9.79Q85.76-11.46 86.29-12.85Q86.81-14.24 87.74-15.34Q88.67-16.45 89.94-17.27Q91.21-18.09 92.69-18.63Q94.18-19.18 95.80-19.45Q97.42-19.73 99.08-19.73L99.08-19.73Q101.27-19.73 103.05-19.29Q104.84-18.85 106.24-18.09Q107.63-17.32 108.66-16.31Q109.68-15.29 110.36-14.15Q111.03-13.01 111.35-11.80Q111.68-10.59 111.68-9.43L111.68-9.43L96.91-7.66Q97.34-5.49 98.63-4.30Q99.92-3.11 102.24-3.11L102.24-3.11Q103.51-3.11 104.62-3.42Q105.72-3.73 106.34-4.18L106.34-4.18L107.91-1.45Q107.18-1.07 106.33-0.74Q105.48-0.41 104.46-0.17Q103.43 0.08 102.19 0.22Q100.95 0.37 99.47 0.37L99.47 0.37Q95.91 0.37 93.34-0.46Q90.76-1.29 89.07-2.69Q87.38-4.08 86.57-5.92Q85.76-7.75 85.76-9.79ZM96.68-10.74L102.20-11.43Q102.20-13.96 101.57-15.12Q100.93-16.27 99.68-16.27L99.68-16.27Q99.04-16.27 98.49-15.96Q97.95-15.64 97.55-14.98Q97.16-14.32 96.93-13.27Q96.70-12.23 96.68-10.74L96.68-10.74Z M110.06-9.79L110.06-9.79Q110.06-11.46 110.59-12.85Q111.11-14.24 112.04-15.34Q112.97-16.45 114.24-17.27Q115.51-18.09 116.99-18.63Q118.48-19.18 120.10-19.45Q121.72-19.73 123.38-19.73L123.38-19.73Q125.57-19.73 127.35-19.29Q129.14-18.85 130.54-18.09Q131.93-17.32 132.96-16.31Q133.98-15.29 134.66-14.15Q135.33-13.01 135.65-11.80Q135.98-10.59 135.98-9.43L135.98-9.43L121.21-7.66Q121.64-5.49 122.93-4.30Q124.22-3.11 126.54-3.11L126.54-3.11Q127.81-3.11 128.92-3.42Q130.02-3.73 130.64-4.18L130.64-4.18L132.21-1.45Q131.48-1.07 130.63-0.74Q129.79-0.41 128.76-0.17Q127.73 0.08 126.49 0.22Q125.25 0.37 123.77 0.37L123.77 0.37Q120.21 0.37 117.64-0.46Q115.06-1.29 113.37-2.69Q111.68-4.08 110.87-5.92Q110.06-7.75 110.06-9.79ZM120.98-10.74L126.50-11.43Q126.50-13.96 125.87-15.12Q125.23-16.27 123.98-16.27L123.98-16.27Q123.34-16.27 122.79-15.96Q122.25-15.64 121.86-14.98Q121.46-14.32 121.23-13.27Q121.00-12.23 120.98-10.74L120.98-10.74Z M135.63 0L135.63-32.25L146.23-32.25L146.23 0L135.63 0Z"/></g>
</svg>
</g></svg></svg>